# xmcd
#
# Track frame offsets: 
#        150
#        26489
#        32524
#        44580
#        66426
#        81910
#        103119
#        118374
#        143069
#        165315
#        199473
#        207857
#
# Disc length: 3387 seconds
#
# Revision: 3
# Processed by: cddbd v1.5.2PL0 Copyright (c) Steve Scherf et al.
# Submitted via: ExactAudioCopy v0.99pb5
#
DISCID=ae0d390c
DTITLE=Various Artist - DFA Compilation #2 [3]
DYEAR=2004
DGENRE=dance-punk
TTITLE0=Pixeltan - Get Up - Say What
TTITLE1=The Rapture - Echoes [DFA edit]
TTITLE2=Liquid Liquid - Bellhead
TTITLE3=J.O.Y. - Sunplus [DFA remix]
TTITLE4=Delia Gonzalez and Gavin Russom - El Monte
TTITLE5=The Juan Maclean - Give Me Every Little Thing
TTITLE6=The Rapture - Sister Saviour [DFA dub]
TTITLE7=Delia Gonzalez and Gavin Russom - Rise
TTITLE8=The Juan Maclean - I Robot
TTITLE9=Black Dice - Endless Happiness [Eye remix]
TTITLE10=LCD Soundsystem - On Repeat [dub]
TTITLE11=LCD Soundsystem - Yeah [crass version] \\ Beat Connection
EXTD=
EXTT0=
EXTT1=
EXTT2=
EXTT3=
EXTT4=
EXTT5=
EXTT6=
EXTT7=
EXTT8=
EXTT9=
EXTT10=
EXTT11=
PLAYORDER=
